<svg id="visual" viewBox="0 0 900 600" width="900" height="600" xmlns="http://www.w3.org/2000/svg" xmlns:xlink="http://www.w3.org/1999/xlink" version="1.1"><path d="M0 61L13.7 59C27.3 57 54.7 53 82 64C109.3 75 136.7 101 163.8 102C191 103 218 79 245.2 76C272.3 73 299.7 91 327 100C354.3 109 381.7 109 409 104C436.3 99 463.7 89 491 91C518.3 93 545.7 107 573 102C600.3 97 627.7 73 654.8 67C682 61 709 73 736.2 75C763.3 77 790.7 69 818 66C845.3 63 872.7 65 886.3 66L900 67L900 0L886.3 0C872.7 0 845.3 0 818 0C790.7 0 763.3 0 736.2 0C709 0 682 0 654.8 0C627.7 0 600.3 0 573 0C545.7 0 518.3 0 491 0C463.7 0 436.3 0 409 0C381.7 0 354.3 0 327 0C299.7 0 272.3 0 245.2 0C218 0 191 0 163.8 0C136.7 0 109.3 0 82 0C54.7 0 27.3 0 13.7 0L0 0Z" fill="#df7c79"></path><path d="M0 127L13.7 128C27.3 129 54.7 131 82 145C109.3 159 136.7 185 163.8 185C191 185 218 159 245.2 151C272.3 143 299.7 153 327 159C354.3 165 381.7 167 409 160C436.3 153 463.7 137 491 141C518.3 145 545.7 169 573 168C600.3 167 627.7 141 654.8 136C682 131 709 147 736.2 145C763.3 143 790.7 123 818 117C845.3 111 872.7 119 886.3 123L900 127L900 65L886.3 64C872.7 63 845.3 61 818 64C790.7 67 763.3 75 736.2 73C709 71 682 59 654.8 65C627.7 71 600.3 95 573 100C545.7 105 518.3 91 491 89C463.7 87 436.3 97 409 102C381.7 107 354.3 107 327 98C299.7 89 272.3 71 245.2 74C218 77 191 101 163.8 100C136.7 99 109.3 73 82 62C54.7 51 27.3 55 13.7 57L0 59Z" fill="#d66562"></path><path d="M0 187L13.7 194C27.3 201 54.7 215 82 235C109.3 255 136.7 281 163.8 282C191 283 218 259 245.2 252C272.3 245 299.7 255 327 256C354.3 257 381.7 249 409 241C436.3 233 463.7 225 491 227C518.3 229 545.7 241 573 232C600.3 223 627.7 193 654.8 194C682 195 709 227 736.2 226C763.3 225 790.7 191 818 178C845.3 165 872.7 173 886.3 177L900 181L900 125L886.3 121C872.7 117 845.3 109 818 115C790.7 121 763.3 141 736.2 143C709 145 682 129 654.8 134C627.7 139 600.3 165 573 166C545.7 167 518.3 143 491 139C463.7 135 436.3 151 409 158C381.7 165 354.3 163 327 157C299.7 151 272.3 141 245.2 149C218 157 191 183 163.8 183C136.7 183 109.3 157 82 143C54.7 129 27.3 127 13.7 126L0 125Z" fill="#cb4c4a"></path><path d="M0 457L13.7 448C27.3 439 54.7 421 82 413C109.3 405 136.7 407 163.8 405C191 403 218 397 245.2 400C272.3 403 299.7 415 327 410C354.3 405 381.7 383 409 385C436.3 387 463.7 413 491 417C518.3 421 545.7 403 573 387C600.3 371 627.7 357 654.8 351C682 345 709 347 736.2 335C763.3 323 790.7 297 818 299C845.3 301 872.7 331 886.3 346L900 361L900 179L886.3 175C872.7 171 845.3 163 818 176C790.7 189 763.3 223 736.2 224C709 225 682 193 654.8 192C627.7 191 600.3 221 573 230C545.7 239 518.3 227 491 225C463.7 223 436.3 231 409 239C381.7 247 354.3 255 327 254C299.7 253 272.3 243 245.2 250C218 257 191 281 163.8 280C136.7 279 109.3 253 82 233C54.7 213 27.3 199 13.7 192L0 185Z" fill="#ba3b3c"></path><path d="M0 565L13.7 556C27.3 547 54.7 529 82 525C109.3 521 136.7 531 163.8 537C191 543 218 545 245.2 546C272.3 547 299.7 547 327 545C354.3 543 381.7 539 409 535C436.3 531 463.7 527 491 523C518.3 519 545.7 515 573 514C600.3 513 627.7 515 654.8 515C682 515 709 513 736.2 511C763.3 509 790.7 507 818 507C845.3 507 872.7 509 886.3 510L900 511L900 359L886.3 344C872.7 329 845.3 299 818 297C790.7 295 763.3 321 736.2 333C709 345 682 343 654.8 349C627.7 355 600.3 369 573 385C545.7 401 518.3 419 491 415C463.7 411 436.3 385 409 383C381.7 381 354.3 403 327 408C299.7 413 272.3 401 245.2 398C218 395 191 401 163.8 403C136.7 405 109.3 403 82 411C54.7 419 27.3 437 13.7 446L0 455Z" fill="#a53536"></path><path d="M0 601L13.7 601C27.3 601 54.7 601 82 601C109.3 601 136.7 601 163.8 601C191 601 218 601 245.2 601C272.3 601 299.7 601 327 601C354.3 601 381.7 601 409 601C436.3 601 463.7 601 491 601C518.3 601 545.7 601 573 601C600.3 601 627.7 601 654.8 601C682 601 709 601 736.2 601C763.3 601 790.7 601 818 601C845.3 601 872.7 601 886.3 601L900 601L900 509L886.3 508C872.7 507 845.3 505 818 505C790.7 505 763.3 507 736.2 509C709 511 682 513 654.8 513C627.7 513 600.3 511 573 512C545.7 513 518.3 517 491 521C463.7 525 436.3 529 409 533C381.7 537 354.3 541 327 543C299.7 545 272.3 545 245.2 544C218 543 191 541 163.8 535C136.7 529 109.3 519 82 523C54.7 527 27.3 545 13.7 554L0 563Z" fill="#912e30"></path></svg>