<svg id="visual" viewBox="0 0 960 540" width="960" height="540" xmlns="http://www.w3.org/2000/svg" xmlns:xlink="http://www.w3.org/1999/xlink" version="1.1"><path d="M0 131L14.5 122.8C29 114.7 58 98.3 87.2 90.2C116.3 82 145.7 82 174.8 87.3C204 92.7 233 103.3 262 105.2C291 107 320 100 349 93.8C378 87.7 407 82.3 436.2 93.2C465.3 104 494.7 131 523.8 128.2C553 125.3 582 92.7 611 85.3C640 78 669 96 698 102.3C727 108.7 756 103.3 785.2 106.2C814.3 109 843.7 120 872.8 123.7C902 127.3 931 123.7 945.5 121.8L960 120L960 0L945.5 0C931 0 902 0 872.8 0C843.7 0 814.3 0 785.2 0C756 0 727 0 698 0C669 0 640 0 611 0C582 0 553 0 523.8 0C494.7 0 465.3 0 436.2 0C407 0 378 0 349 0C320 0 291 0 262 0C233 0 204 0 174.8 0C145.7 0 116.3 0 87.2 0C58 0 29 0 14.5 0L0 0Z" fill="#967dff"></path><path d="M0 206L14.5 199.7C29 193.3 58 180.7 87.2 181.7C116.3 182.7 145.7 197.3 174.8 201.8C204 206.3 233 200.7 262 199.7C291 198.7 320 202.3 349 200.7C378 199 407 192 436.2 196.5C465.3 201 494.7 217 523.8 214.2C553 211.3 582 189.7 611 186.2C640 182.7 669 197.3 698 195.7C727 194 756 176 785.2 183.2C814.3 190.3 843.7 222.7 872.8 228.8C902 235 931 215 945.5 205L960 195L960 118L945.5 119.8C931 121.7 902 125.3 872.8 121.7C843.7 118 814.3 107 785.2 104.2C756 101.3 727 106.7 698 100.3C669 94 640 76 611 83.3C582 90.7 553 123.3 523.8 126.2C494.7 129 465.3 102 436.2 91.2C407 80.3 378 85.7 349 91.8C320 98 291 105 262 103.2C233 101.3 204 90.7 174.8 85.3C145.7 80 116.3 80 87.2 88.2C58 96.3 29 112.7 14.5 120.8L0 129Z" fill="#7554ff"></path><path d="M0 314L14.5 318.5C29 323 58 332 87.2 333.8C116.3 335.7 145.7 330.3 174.8 333C204 335.7 233 346.3 262 341.8C291 337.3 320 317.7 349 313.2C378 308.7 407 319.3 436.2 338.2C465.3 357 494.7 384 523.8 383.2C553 382.3 582 353.7 611 345.7C640 337.7 669 350.3 698 355.7C727 361 756 359 785.2 364.3C814.3 369.7 843.7 382.3 872.8 374.3C902 366.3 931 337.7 945.5 323.3L960 309L960 193L945.5 203C931 213 902 233 872.8 226.8C843.7 220.7 814.3 188.3 785.2 181.2C756 174 727 192 698 193.7C669 195.3 640 180.7 611 184.2C582 187.7 553 209.3 523.8 212.2C494.7 215 465.3 199 436.2 194.5C407 190 378 197 349 198.7C320 200.3 291 196.7 262 197.7C233 198.7 204 204.3 174.8 199.8C145.7 195.3 116.3 180.7 87.2 179.7C58 178.7 29 191.3 14.5 197.7L0 204Z" fill="#5a34ea"></path><path d="M0 541L14.5 541C29 541 58 541 87.2 541C116.3 541 145.7 541 174.8 541C204 541 233 541 262 541C291 541 320 541 349 541C378 541 407 541 436.2 541C465.3 541 494.7 541 523.8 541C553 541 582 541 611 541C640 541 669 541 698 541C727 541 756 541 785.2 541C814.3 541 843.7 541 872.8 541C902 541 931 541 945.5 541L960 541L960 307L945.5 321.3C931 335.7 902 364.3 872.8 372.3C843.7 380.3 814.3 367.7 785.2 362.3C756 357 727 359 698 353.7C669 348.3 640 335.7 611 343.7C582 351.7 553 380.3 523.8 381.2C494.7 382 465.3 355 436.2 336.2C407 317.3 378 306.7 349 311.2C320 315.7 291 335.3 262 339.8C233 344.3 204 333.7 174.8 331C145.7 328.3 116.3 333.7 87.2 331.8C58 330 29 321 14.5 316.5L0 312Z" fill="#4726c0"></path></svg>